Crispy-parametric-NarrowThinMaxGrade-MaxShadow.ufo
<glyph name="zero" format="2">
  <advance width="264"/>
  <unicode hex="0030"/>
  <outline>
    <contour>
      <point x="34" y="0" type="line" identifier="4KX3b3mGg4"/>
      <point x="230" y="0" type="line" identifier="V2j8wYP0nr"/>
      <point x="230" y="1600" type="line" identifier="NaxGoenf3y"/>
      <point x="34" y="1600" type="line" identifier="rx6fJSLiri"/>
    </contour>
    <contour>
      <point x="85" y="41" type="line"/>
      <point x="85" y="1559" type="line"/>
      <point x="180" y="1559" type="line"/>
      <point x="180" y="41" type="line"/>
    </contour>
  </outline>
</glyph>
<glyph name="four" format="2">
  <advance width="263"/>
  <unicode hex="0034"/>
  <outline>
    <contour>
      <point x="153" y="0" type="line"/>
      <point x="204" y="0" type="line"/>
      <point x="204" y="790" type="line"/>
      <point x="238" y="790" type="line"/>
      <point x="238" y="831" type="line"/>
      <point x="204" y="831" type="line"/>
      <point x="204" y="1600" type="line"/>
      <point x="153" y="1600" type="line"/>
      <point x="153" y="831" type="line"/>
      <point x="76" y="831" type="line"/>
      <point x="76" y="908" type="line"/>
      <point x="117" y="1680" type="line"/>
      <point x="69" y="1680" type="line"/>
      <point x="26" y="907" type="line"/>
      <point x="26" y="790" type="line"/>
      <point x="153" y="790" type="line"/>
    </contour>
  </outline>
</glyph>
<glyph name="W" format="2">
  <advance width="397"/>
  <unicode hex="0057"/>
  <outline>
    <contour>
      <point x="85" y="1600" type="line" smooth="yes" identifier="12Pyby1xY2"/>
      <point x="34" y="1600" type="line" smooth="yes" identifier="5LJg4ajoG6"/>
      <point x="34" y="0" type="line" smooth="yes" identifier="ZqTZqAY3uY"/>
      <point x="178" y="0" type="line" smooth="yes" identifier="rCeQLyjlsN"/>
      <point x="193" y="175" type="line"/>
      <point x="195" y="175" type="line"/>
      <point x="195" y="0" type="line" smooth="yes" identifier="Pkl7cZ37MU"/>
      <point x="316" y="0" type="line" smooth="yes" identifier="R4lklfJsHA"/>
      <point x="369" y="241" type="line" smooth="yes" identifier="7g7f8Wu7K4"/>
      <point x="369" y="1600" type="line" smooth="yes" identifier="RTOJW56qXy"/>
      <point x="318" y="1600" type="line" identifier="JfSFAkWGZC"/>
      <point x="318" y="242" type="line" smooth="yes" identifier="WWvGwSpq0g"/>
      <point x="275" y="41" type="line" smooth="yes" identifier="oee4nqI8Wl"/>
      <point x="227" y="41" type="line" identifier="Ljn2lpvpG8"/>
      <point x="227" y="221" type="line"/>
      <point x="227" y="1575" type="line" smooth="yes"/>
      <point x="177" y="1575" type="line"/>
      <point x="177" y="249" type="line"/>
      <point x="175" y="230" type="line"/>
      <point x="155" y="41" type="line" identifier="GlWB6PG54Z"/>
      <point x="85" y="41" type="line" identifier="iqeTRv7HXg"/>
    </contour>
  </outline>
</glyph>
<glyph name="A.shadow" format="2">
  <advance width="184"/>
  <outline>
    <contour>
      <point x="169" y="766" type="line" smooth="yes" identifier="QVexAlbAcl"/>
      <point x="79" y="766" type="line" smooth="yes" identifier="viYRWe5UN7"/>
      <point x="79" y="716" type="line"/>
      <point x="119" y="716" type="line"/>
      <point x="119" y="-50" type="line"/>
      <point x="170" y="-50" type="line"/>
      <point x="220" y="0" type="line" smooth="yes" identifier="kpn4Kw9J0C"/>
      <point x="169" y="0" type="line" smooth="yes" identifier="ZgsCdxNJRW"/>
    </contour>
    <contour>
      <point x="169" y="1559" type="line" smooth="yes" identifier="tUsW8L7b0y"/>
      <point x="123" y="1559" type="line" smooth="yes" identifier="FsYtJ2vFnp"/>
      <point x="110" y="1509" type="line"/>
      <point x="119" y="1509" type="line"/>
      <point x="119" y="807" type="line"/>
      <point x="169" y="807" type="line" smooth="yes" identifier="eTe9B4y76W"/>
    </contour>
    <contour>
      <point x="110" y="1509" type="line"/>
      <point x="79" y="1389" type="line" smooth="yes" identifier="VufvPdJ075"/>
      <point x="110" y="1509" type="line"/>
    </contour>
    <contour>
      <point x="28" y="0" type="line" smooth="yes" identifier="jFq8ta4UUc"/>
      <point x="28" y="1389" type="line" smooth="yes" identifier="dqVr87m3uJ"/>
      <point x="81" y="1600" type="line" smooth="yes" identifier="iDT0uyhKrn"/>
      <point x="31" y="1550" type="line"/>
      <point x="-22" y="1339" type="line"/>
      <point x="-22" y="-50" type="line"/>
      <point x="29" y="-50" type="line"/>
      <point x="79" y="0" type="line" smooth="yes" identifier="dQz4RxYhG4"/>
    </contour>
  </outline>
</glyph>
<glyph name="B.narrow.shadow" format="2">
  <advance width="188"/>
  <outline>
    <contour>
      <point x="228" y="779" type="line" identifier="543PerILpr"/>
      <point x="191" y="821" type="line"/>
      <point x="225" y="855" type="line" identifier="eGKH52Jgnk"/>
      <point x="182" y="831" type="line" identifier="870ZhtaozS"/>
    </contour>
    <contour>
      <point x="85" y="821" type="line" identifier="By7dfMihfe"/>
      <point x="125" y="842" type="line"/>
      <point x="125" y="842" type="line"/>
      <point x="175" y="869" type="line" identifier="9lW01gQyU2"/>
      <point x="175" y="1559" type="line" identifier="Qby8aMtF2X"/>
      <point x="85" y="1559" type="line" identifier="1p5hKrurVy"/>
      <point x="85" y="1509" type="line"/>
      <point x="125" y="1509" type="line"/>
      <point x="125" y="842" type="line"/>
    </contour>
    <contour>
      <point x="128" y="716" type="line"/>
      <point x="128" y="41" type="line"/>
      <point x="178" y="41" type="line" identifier="xhlDJ3CjD5"/>
      <point x="178" y="766" type="line" identifier="lsRGatjQja"/>
      <point x="136" y="813" type="line" identifier="VyYlzRh5nq"/>
      <point x="85" y="785" type="line" identifier="XSrxNd2axx"/>
      <point x="85" y="762" type="line"/>
      <point x="86" y="763" type="line"/>
    </contour>
    <contour>
      <point x="34" y="0" type="line" identifier="hvY9r8RmLr"/>
      <point x="34" y="1600" type="line" identifier="JEev70GAj6"/>
      <point x="-16" y="1550" type="line"/>
      <point x="-16" y="-50" type="line"/>
      <point x="178" y="-50" type="line"/>
      <point x="228" y="0" type="line" identifier="9QFpw7nfq7"/>
    </contour>
  </outline>
</glyph>
<glyph name="B.shadow" format="2">
  <advance width="188"/>
  <outline>
    <contour>
      <point x="125" y="820" type="line"/>
      <point x="143" y="820" type="line" identifier="xpxyvIzPoc"/>
      <point x="175" y="864" type="line" identifier="9lW01gQyU2"/>
      <point x="175" y="1559" type="line" identifier="Qby8aMtF2X"/>
      <point x="85" y="1559" type="line" identifier="1p5hKrurVy"/>
      <point x="85" y="1509" type="line"/>
      <point x="125" y="1509" type="line"/>
    </contour>
    <contour>
      <point x="128" y="690" type="line"/>
      <point x="128" y="41" type="line"/>
      <point x="178" y="41" type="line" identifier="xhlDJ3CjD5"/>
      <point x="178" y="740" type="line" identifier="lsRGatjQja"/>
      <point x="143" y="779" type="line" identifier="VyYlzRh5nq"/>
      <point x="85" y="779" type="line" identifier="XSrxNd2axx"/>
      <point x="85" y="729" type="line"/>
      <point x="93" y="729" type="line"/>
    </contour>
    <contour>
      <point x="34" y="0" type="line" identifier="hvY9r8RmLr"/>
      <point x="34" y="1600" type="line" identifier="JEev70GAj6"/>
      <point x="-16" y="1550" type="line"/>
      <point x="-16" y="-50" type="line"/>
      <point x="178" y="-50" type="line"/>
      <point x="228" y="0" type="line" identifier="9QFpw7nfq7"/>
    </contour>
  </outline>
</glyph>
<glyph name="C.shadow" format="2">
  <advance width="178"/>
  <outline>
    <contour>
      <point x="171" y="1559" type="line" identifier="5BjRbcud80"/>
      <point x="122" y="1559" type="line" identifier="dbOUe6OhxL"/>
      <point x="79" y="1266" type="line" identifier="sUWsr03vF4"/>
      <point x="115" y="1509" type="line"/>
      <point x="121" y="1509" type="line"/>
      <point x="121" y="1021" type="line"/>
      <point x="171" y="1021" type="line"/>
      <point x="221" y="1071" type="line" identifier="wLqQQx7QVN"/>
      <point x="171" y="1071" type="line" identifier="fNVDqwQo2o"/>
    </contour>
    <contour>
      <point x="28" y="0" type="line" identifier="7lPhzTnk2Z"/>
      <point x="28" y="1269" type="line" identifier="V1EWIdPahq"/>
      <point x="79" y="1600" type="line" identifier="lfZev3ICaC"/>
      <point x="29" y="1550" type="line"/>
      <point x="-22" y="1219" type="line"/>
      <point x="-22" y="-50" type="line"/>
      <point x="172" y="-50" type="line"/>
      <point x="222" y="0" type="line" identifier="qJVLZGnkwh"/>
    </contour>
    <contour>
      <point x="122" y="41" type="line"/>
      <point x="172" y="41" type="line" identifier="Y750RHTvDj"/>
      <point x="172" y="356" type="line" identifier="QX1V08aTu0"/>
      <point x="122" y="306" type="line"/>
    </contour>
  </outline>
</glyph>
<glyph name="C.wide.shadow" format="2">
  <advance width="178"/>
  <outline>
    <contour>
      <point x="79" y="1266" type="line" identifier="sUWsr03vF4"/>
      <point x="115" y="1509" type="line"/>
      <point x="171" y="1509" type="line"/>
      <point x="221" y="1559" type="line" identifier="5BjRbcud80"/>
      <point x="122" y="1559" type="line" identifier="dbOUe6OhxL"/>
    </contour>
    <contour>
      <point x="28" y="0" type="line" identifier="7lPhzTnk2Z"/>
      <point x="28" y="1269" type="line" identifier="V1EWIdPahq"/>
      <point x="78" y="1600" type="line" identifier="lfZev3ICaC"/>
      <point x="28" y="1550" type="line"/>
      <point x="-22" y="1219" type="line"/>
      <point x="-22" y="-50" type="line"/>
      <point x="172" y="-50" type="line"/>
      <point x="222" y="0" type="line" identifier="qJVLZGnkwh"/>
    </contour>
  </outline>
</glyph>
<glyph name="D.shadow" format="2">
  <advance width="192"/>
  <outline>
    <contour>
      <point x="132" y="229" type="line"/>
      <point x="89" y="41" type="line"/>
      <point x="127" y="41" type="line" identifier="DiLdvAK6bW"/>
      <point x="182" y="279" type="line" identifier="5OFemp6E2Y"/>
      <point x="182" y="1559" type="line" identifier="4w8cXO1HlF"/>
      <point x="85" y="1559" type="line" identifier="OGdfzPVlic"/>
      <point x="85" y="1509" type="line"/>
      <point x="132" y="1509" type="line"/>
    </contour>
    <contour>
      <point x="34" y="1600" type="line" identifier="gh4oopoKIn"/>
      <point x="-16" y="1550" type="line"/>
      <point x="-16" y="-50" type="line"/>
      <point x="115" y="-50" type="line"/>
      <point x="165" y="0" type="line" identifier="IF8msvcgce"/>
      <point x="34" y="0" type="line" identifier="hTYdJwlqIh"/>
    </contour>
  </outline>
</glyph>
<glyph name="E.shadow" format="2">
  <advance width="166"/>
  <outline>
    <contour>
      <point x="166" y="1559" type="line" identifier="eqNb2VTwYs"/>
      <point x="85" y="1559" type="line" identifier="gQ21I4SHQg"/>
      <point x="85" y="1509" type="line"/>
      <point x="116" y="1509" type="line"/>
      <point x="116" y="1100" type="line"/>
      <point x="159" y="1100" type="line"/>
      <point x="209" y="1150" type="line" identifier="e79n7CoPy1"/>
      <point x="166" y="1150" type="line" identifier="mLmcFoJA4m"/>
    </contour>
    <contour>
      <point x="34" y="0" type="line" identifier="fZynkQ4XHB"/>
      <point x="34" y="1600" type="line" identifier="HmJIcnLWfC"/>
      <point x="-16" y="1550" type="line"/>
      <point x="-16" y="-50" type="line"/>
      <point x="160" y="-50" type="line"/>
      <point x="210" y="0" type="line" identifier="FAQNpgUPxV"/>
    </contour>
    <contour>
      <point x="85" y="729" type="line"/>
      <point x="143" y="729" type="line"/>
      <point x="193" y="779" type="line" identifier="PpbsFdHAnS"/>
      <point x="85" y="779" type="line" identifier="VtD2aADJmn"/>
    </contour>
    <contour>
      <point x="117" y="41" type="line"/>
      <point x="167" y="41" type="line" identifier="5cgTYOhATF"/>
      <point x="167" y="364" type="line" identifier="gxCIuXb4el"/>
      <point x="117" y="314" type="line"/>
    </contour>
  </outline>
</glyph>
<glyph name="E.wide.shadow" format="2">
  <advance width="116"/>
  <outline>
    <contour>
      <point x="85" y="1512" type="line"/>
      <point x="109" y="1512" type="line"/>
      <point x="159" y="1562" type="line" identifier="eqNb2VTwYs"/>
      <point x="85" y="1562" type="line" identifier="gQ21I4SHQg"/>
    </contour>
    <contour>
      <point x="85" y="731" type="line"/>
      <point x="100" y="731" type="line"/>
      <point x="150" y="781" type="line" identifier="PpbsFdHAnS"/>
      <point x="85" y="781" type="line" identifier="VtD2aADJmn"/>
    </contour>
    <contour>
      <point x="34" y="0" type="line" identifier="fZynkQ4XHB"/>
      <point x="34" y="1600" type="line" identifier="HmJIcnLWfC"/>
      <point x="-16" y="1550" type="line"/>
      <point x="-16" y="-50" type="line"/>
      <point x="110" y="-50" type="line"/>
      <point x="160" y="0" type="line" identifier="FAQNpgUPxV"/>
    </contour>
  </outline>
</glyph>
<glyph name="F.shadow" format="2">
  <advance width="171"/>
  <outline>
    <contour>
      <point x="165" y="1559" type="line" identifier="4E754ovOIe"/>
      <point x="85" y="1559" type="line" identifier="ZvzwyrcwpS"/>
      <point x="85" y="1509" type="line"/>
      <point x="115" y="1509" type="line"/>
      <point x="115" y="1097" type="line"/>
      <point x="165" y="1097" type="line"/>
      <point x="215" y="1147" type="line" identifier="0tk7G4orz6"/>
      <point x="165" y="1147" type="line" identifier="vZkeT9KrKR"/>
    </contour>
    <contour>
      <point x="34" y="0" type="line" identifier="oAgH2tA6DJ"/>
      <point x="34" y="1600" type="line" identifier="TBAYuCfUFX"/>
      <point x="-16" y="1550" type="line"/>
      <point x="-16" y="-50" type="line"/>
      <point x="35" y="-50" type="line"/>
      <point x="85" y="0" type="line" identifier="zCZyMcW5ho"/>
    </contour>
    <contour>
      <point x="198" y="774" type="line" identifier="NmB7yyQuio"/>
      <point x="85" y="774" type="line" identifier="yHYqkMd7LI"/>
      <point x="85" y="724" type="line"/>
      <point x="148" y="724" type="line"/>
    </contour>
  </outline>
</glyph>
<glyph name="F.wide.shadow" format="2">
  <advance width="149"/>
  <outline>
    <contour>
      <point x="85" y="1509" type="line"/>
      <point x="143" y="1509" type="line"/>
      <point x="193" y="1559" type="line" identifier="4E754ovOIe"/>
      <point x="85" y="1559" type="line" identifier="ZvzwyrcwpS"/>
    </contour>
    <contour>
      <point x="34" y="0" type="line" identifier="oAgH2tA6DJ"/>
      <point x="34" y="1600" type="line" identifier="TBAYuCfUFX"/>
      <point x="-16" y="1550" type="line"/>
      <point x="-16" y="-50" type="line"/>
      <point x="35" y="-50" type="line"/>
      <point x="85" y="0" type="line" identifier="zCZyMcW5ho"/>
    </contour>
    <contour>
      <point x="185" y="758" type="line" identifier="NmB7yyQuio"/>
      <point x="85" y="758" type="line" identifier="yHYqkMd7LI"/>
      <point x="85" y="708" type="line"/>
      <point x="135" y="708" type="line"/>
    </contour>
  </outline>
</glyph>
<glyph name="G.shadow" format="2">
  <advance width="178"/>
  <outline>
    <contour>
      <point x="170" y="1559" type="line" identifier="5BjRbcud80"/>
      <point x="121" y="1559" type="line" identifier="dbOUe6OhxL"/>
      <point x="79" y="1272" type="line" identifier="sUWsr03vF4"/>
      <point x="114" y="1509" type="line"/>
      <point x="120" y="1509" type="line"/>
      <point x="120" y="1088" type="line"/>
      <point x="171" y="1088" type="line"/>
      <point x="221" y="1138" type="line" identifier="wLqQQx7QVN"/>
      <point x="170" y="1138" type="line" identifier="fNVDqwQo2o"/>
    </contour>
    <contour>
      <point x="79" y="725" type="line"/>
      <point x="121" y="725" type="line"/>
      <point x="121" y="41" type="line"/>
      <point x="171" y="41" type="line" identifier="Y750RHTvDj"/>
      <point x="171" y="775" type="line" identifier="4m6dHLVhZq"/>
      <point x="109" y="775" type="line" identifier="EARaY3Su65"/>
      <point x="109" y="816" type="line" identifier="qcvimxjndX"/>
      <point x="79" y="786" type="line"/>
    </contour>
    <contour>
      <point x="28" y="0" type="line" identifier="7lPhzTnk2Z"/>
      <point x="28" y="1274" type="line" identifier="V1EWIdPahq"/>
      <point x="77" y="1600" type="line" identifier="lfZev3ICaC"/>
      <point x="27" y="1550" type="line"/>
      <point x="-22" y="1224" type="line"/>
      <point x="-22" y="-50" type="line"/>
      <point x="172" y="-50" type="line"/>
      <point x="222" y="0" type="line" identifier="qJVLZGnkwh"/>
    </contour>
  </outline>
</glyph>
<glyph name="G.wide.shadow" format="2">
  <advance width="172"/>
  <outline>
    <contour>
      <point x="79" y="1272" type="line" identifier="sUWsr03vF4"/>
      <point x="114" y="1509" type="line"/>
      <point x="171" y="1509" type="line"/>
      <point x="221" y="1559" type="line" identifier="5BjRbcud80"/>
      <point x="121" y="1559" type="line" identifier="dbOUe6OhxL"/>
    </contour>
    <contour>
      <point x="79" y="727" type="line"/>
      <point x="122" y="727" type="line"/>
      <point x="122" y="41" type="line"/>
      <point x="172" y="41" type="line" identifier="Y750RHTvDj"/>
      <point x="172" y="777" type="line" identifier="4m6dHLVhZq"/>
      <point x="117" y="777" type="line" identifier="EARaY3Su65"/>
      <point x="117" y="811" type="line" identifier="qcvimxjndX"/>
      <point x="79" y="773" type="line"/>
    </contour>
    <contour>
      <point x="28" y="0" type="line" identifier="7lPhzTnk2Z"/>
      <point x="28" y="1274" type="line" identifier="V1EWIdPahq"/>
      <point x="75" y="1600" type="line" identifier="lfZev3ICaC"/>
      <point x="25" y="1550" type="line"/>
      <point x="-22" y="1224" type="line"/>
      <point x="-22" y="-50" type="line"/>
      <point x="172" y="-50" type="line"/>
      <point x="222" y="0" type="line" identifier="qJVLZGnkwh"/>
    </contour>
  </outline>
</glyph>
<glyph name="H.shadow" format="2">
  <advance width="191"/>
  <outline>
    <contour>
      <point x="177" y="780" type="line" identifier="7JgTtdb0jg"/>
      <point x="85" y="780" type="line" identifier="QjywsYY2yB"/>
      <point x="85" y="730" type="line"/>
      <point x="127" y="730" type="line"/>
      <point x="127" y="-50" type="line"/>
      <point x="177" y="-50" type="line"/>
      <point x="227" y="0" type="line" identifier="oOtn61SmRY"/>
      <point x="177" y="0" type="line" identifier="njzlIRBsoY"/>
    </contour>
    <contour>
      <point x="127" y="820" type="line"/>
      <point x="177" y="820" type="line" identifier="MTAeavIVWY"/>
      <point x="177" y="1600" type="line" identifier="db0bPhBdaU"/>
      <point x="127" y="1550" type="line"/>
    </contour>
    <contour>
      <point x="34" y="0" type="line" identifier="uqAJBjDIOT"/>
      <point x="34" y="1600" type="line" identifier="ZnCDQVdtyD"/>
      <point x="-16" y="1550" type="line"/>
      <point x="-16" y="-50" type="line"/>
      <point x="35" y="-50" type="line"/>
      <point x="85" y="0" type="line" identifier="WUaPOcaxKT"/>
    </contour>
  </outline>
</glyph>
<glyph name="I.shadow" format="2">
  <advance width="148"/>
  <outline>
    <contour>
      <point x="134" y="1509" type="line"/>
      <point x="142" y="1509" type="line"/>
      <point x="192" y="1559" type="line" identifier="9RiQmr3G8U"/>
      <point x="134" y="1559" type="line" identifier="v7N4yg5XNk"/>
    </contour>
    <contour>
      <point x="26" y="0" type="line" identifier="u8XZE2STzL"/>
      <point x="26" y="41" type="line" identifier="aCoxe3fSmw"/>
      <point x="-24" y="-9" type="line"/>
      <point x="-24" y="-50" type="line"/>
      <point x="142" y="-50" type="line"/>
      <point x="192" y="0" type="line" identifier="1Ty0JfMohF"/>
    </contour>
    <contour>
      <point x="-24" y="1509" type="line"/>
      <point x="33" y="1509" type="line"/>
      <point x="33" y="41" type="line"/>
      <point x="83" y="41" type="line" identifier="S4rO5KuHiL"/>
      <point x="83" y="1559" type="line" identifier="zfocDyDTCM"/>
      <point x="26" y="1559" type="line" identifier="O5ZoWKLuW7"/>
      <point x="26" y="1600" type="line" identifier="PL3Zqx19x8"/>
      <point x="-24" y="1550" type="line"/>
    </contour>
  </outline>
</glyph>
<glyph name="J.shadow" format="2">
  <advance width="182"/>
  <outline>
    <contour>
      <point x="-18" y="1509" type="line"/>
      <point x="117" y="1509" type="line"/>
      <point x="117" y="41" type="line"/>
      <point x="167" y="41" type="line" identifier="zFXsE8BUYG"/>
      <point x="167" y="1559" type="line" identifier="46RrD1WET2"/>
      <point x="32" y="1559" type="line" identifier="AdYfGKx8QJ"/>
      <point x="32" y="1600" type="line" identifier="TbrXnCyMEi"/>
      <point x="-18" y="1550" type="line"/>
    </contour>
    <contour>
      <point x="52" y="0" type="line" identifier="jiO9eX9U07"/>
      <point x="26" y="594" type="line" identifier="7exNZv1XSc"/>
      <point x="-24" y="544" type="line"/>
      <point x="2" y="-50" type="line"/>
      <point x="168" y="-50" type="line"/>
      <point x="218" y="0" type="line" identifier="wgpFs1yguc"/>
    </contour>
  </outline>
</glyph>
<glyph name="K.alt.shadow" format="2">
  <advance width="180"/>
  <outline>
    <contour>
      <point x="95" y="823" type="line"/>
      <point x="143" y="823" type="line" identifier="g4YLdZEoM3"/>
      <point x="178" y="1600" type="line" identifier="08OWjR2YBJ"/>
      <point x="128" y="1550" type="line"/>
    </contour>
    <contour>
      <point x="179" y="752" type="line" identifier="DzXo67YEfw"/>
      <point x="141" y="782" type="line" identifier="ELFBWIb1vd"/>
      <point x="86" y="782" type="line" identifier="O22liaP9Qk"/>
      <point x="86" y="732" type="line"/>
      <point x="91" y="732" type="line"/>
      <point x="129" y="702" type="line"/>
      <point x="129" y="-50" type="line"/>
      <point x="180" y="-50" type="line"/>
      <point x="230" y="0" type="line" identifier="ChS7KlqGi6"/>
      <point x="179" y="0" type="line" identifier="aKpYWD78l2"/>
    </contour>
    <contour>
      <point x="86" y="0" type="line" identifier="wmNm7XZsaF"/>
      <point x="36" y="0" type="line" identifier="wdbO8kCovY"/>
      <point x="36" y="1600" type="line" identifier="3XJlWt89ad"/>
      <point x="-14" y="1550" type="line"/>
      <point x="-14" y="-50" type="line"/>
      <point x="36" y="-50" type="line"/>
    </contour>
  </outline>
</glyph>
<glyph name="K.narrow" format="2">
  <advance width="275"/>
  <outline>
    <contour>
      <point x="85" y="0" type="line"/>
      <point x="85" y="790" type="line"/>
      <point x="139" y="834" type="line"/>
      <point x="199" y="0" type="line"/>
      <point x="247" y="0" type="line"/>
      <point x="181" y="852" type="line"/>
      <point x="224" y="884" type="line"/>
      <point x="224" y="1600" type="line"/>
      <point x="174" y="1600" type="line"/>
      <point x="174" y="905" type="line"/>
      <point x="85" y="830" type="line"/>
      <point x="85" y="1600" type="line"/>
      <point x="34" y="1600" type="line"/>
      <point x="34" y="0" type="line"/>
    </contour>
  </outline>
</glyph>
<glyph name="K.narrow.shadow" format="2">
  <advance width="205"/>
  <outline>
    <contour>
      <point x="247" y="0" type="line"/>
      <point x="199" y="0" type="line"/>
      <point x="139" y="834" type="line"/>
      <point x="85" y="790" type="line"/>
      <point x="85" y="781" type="line"/>
      <point x="89" y="784" type="line"/>
      <point x="149" y="-50" type="line"/>
      <point x="197" y="-50" type="line"/>
      <point x="247" y="0" type="line"/>
      <point x="182" y="842" type="line"/>
      <point x="224" y="884" type="line"/>
      <point x="181" y="852" type="line"/>
    </contour>
    <contour>
      <point x="124" y="863" type="line"/>
      <point x="85" y="830" type="line"/>
      <point x="174" y="905" type="line"/>
      <point x="174" y="1600" type="line"/>
      <point x="124" y="1550" type="line"/>
    </contour>
    <contour>
      <point x="85" y="0" type="line"/>
      <point x="34" y="0" type="line"/>
      <point x="34" y="1600" type="line"/>
      <point x="-16" y="1550" type="line"/>
      <point x="-16" y="-50" type="line"/>
      <point x="35" y="-50" type="line"/>
    </contour>
  </outline>
</glyph>
<glyph name="K.shadow" format="2">
  <advance width="186"/>
  <outline>
    <contour>
      <point x="120" y="820" type="line"/>
      <point x="130" y="820" type="line" identifier="g4YLdZEoM3"/>
      <point x="170" y="863" type="line" identifier="F62GU90G6q"/>
      <point x="170" y="1600" type="line" identifier="08OWjR2YBJ"/>
      <point x="120" y="1550" type="line"/>
    </contour>
    <contour>
      <point x="177" y="734" type="line" identifier="DzXo67YEfw"/>
      <point x="130" y="780" type="line" identifier="ELFBWIb1vd"/>
      <point x="85" y="780" type="line" identifier="O22liaP9Qk"/>
      <point x="85" y="725" type="line"/>
      <point x="127" y="684" type="line"/>
      <point x="127" y="-50" type="line"/>
      <point x="178" y="-50" type="line"/>
      <point x="228" y="0" type="line" identifier="ChS7KlqGi6"/>
      <point x="177" y="0" type="line" identifier="aKpYWD78l2"/>
    </contour>
    <contour>
      <point x="85" y="0" type="line" identifier="wmNm7XZsaF"/>
      <point x="34" y="0" type="line" identifier="wdbO8kCovY"/>
      <point x="34" y="1600" type="line" identifier="3XJlWt89ad"/>
      <point x="-16" y="1550" type="line"/>
      <point x="-16" y="-50" type="line"/>
      <point x="35" y="-50" type="line"/>
    </contour>
  </outline>
</glyph>
<glyph name="L.shadow" format="2">
  <advance width="168"/>
  <outline>
    <contour>
      <point x="34" y="0" type="line" identifier="XkJNfQlnnt"/>
      <point x="34" y="1600" type="line" identifier="XFf4mMUzYo"/>
      <point x="-16" y="1550" type="line"/>
      <point x="-16" y="-50" type="line"/>
      <point x="162" y="-50" type="line"/>
      <point x="212" y="0" type="line" identifier="82EXZEgt46"/>
    </contour>
    <contour>
      <point x="111" y="41" type="line"/>
      <point x="161" y="41" type="line" identifier="cqpSxwFiM3"/>
      <point x="161" y="316" type="line" identifier="t7Q9RRLHt8"/>
      <point x="111" y="266" type="line"/>
    </contour>
  </outline>
</glyph>
<glyph name="L.wide.shadow" format="2">
  <advance width="142"/>
  <outline>
    <contour>
      <point x="33" y="0" type="line" identifier="XkJNfQlnnt"/>
      <point x="33" y="1600" type="line" identifier="XFf4mMUzYo"/>
      <point x="-17" y="1550" type="line"/>
      <point x="-17" y="-50" type="line"/>
      <point x="136" y="-50" type="line"/>
      <point x="186" y="0" type="line" identifier="82EXZEgt46"/>
    </contour>
  </outline>
</glyph>
<glyph name="M.narrow.shadow" format="2">
  <advance width="325"/>
  <outline>
    <contour>
      <point x="317" y="0" type="line" smooth="yes" identifier="12Pyby1xY2"/>
      <point x="317" y="1559" type="line" identifier="iqeTRv7HXg"/>
      <point x="228" y="1559" type="line" identifier="GlWB6PG54Z"/>
      <point x="228" y="1509" type="line"/>
      <point x="267" y="1509" type="line"/>
      <point x="267" y="-50" type="line"/>
      <point x="317" y="-50" type="line"/>
      <point x="367" y="0" type="line" smooth="yes" identifier="5LJg4ajoG6"/>
    </contour>
    <contour>
      <point x="104" y="1509" type="line"/>
      <point x="85" y="1444" type="line" smooth="yes" identifier="WWvGwSpq0g"/>
      <point x="104" y="1509" type="line"/>
    </contour>
    <contour>
      <point x="-16" y="1395" type="line"/>
      <point x="-16" y="-50" type="line"/>
      <point x="35" y="-50" type="line"/>
      <point x="85" y="0" type="line" identifier="JfSFAkWGZC"/>
      <point x="34" y="0" type="line" smooth="yes" identifier="RTOJW56qXy"/>
      <point x="34" y="1445" type="line" smooth="yes" identifier="7g7f8Wu7K4"/>
      <point x="79" y="1600" type="line" smooth="yes" identifier="R4lklfJsHA"/>
      <point x="29" y="1550" type="line"/>
    </contour>
    <contour>
      <point x="178" y="1559" type="line" identifier="Ljn2lpvpG8"/>
      <point x="119" y="1559" type="line" smooth="yes" identifier="oee4nqI8Wl"/>
      <point x="104" y="1509" type="line"/>
      <point x="128" y="1509" type="line"/>
      <point x="128" y="-33" type="line"/>
      <point x="178" y="-33" type="line"/>
      <point x="228" y="17" type="line"/>
      <point x="178" y="17" type="line" smooth="yes"/>
    </contour>
  </outline>
</glyph>
<glyph name="M.shadow" format="2">
  <advance width="327"/>
  <outline>
    <contour>
      <point x="-16" y="-50" type="line"/>
      <point x="29" y="-50" type="line"/>
      <point x="79" y="0" type="line"/>
      <point x="79" y="706" type="line"/>
      <point x="99" y="220" type="line"/>
      <point x="198" y="220" type="line"/>
      <point x="248" y="270" type="line" identifier="spdoeeCFft"/>
      <point x="268" y="766" type="line"/>
      <point x="268" y="-50" type="line"/>
      <point x="313" y="-50" type="line"/>
      <point x="363" y="0" type="line"/>
      <point x="363" y="1600" type="line"/>
      <point x="257" y="1600" type="line"/>
      <point x="255" y="1550" type="line"/>
      <point x="255" y="1550" type="line"/>
      <point x="257" y="1600" type="line"/>
      <point x="207" y="1550" type="line"/>
      <point x="174" y="709" type="line"/>
      <point x="139" y="1600" type="line"/>
      <point x="34" y="1600" type="line"/>
      <point x="-16" y="1550" type="line"/>
    </contour>
    <contour>
      <point x="149" y="270" type="line" identifier="0Dn4Xpf57M"/>
      <point x="96" y="1557" type="line"/>
      <point x="96" y="1559" type="line"/>
    </contour>
    <contour>
      <point x="253" y="1509" type="line"/>
      <point x="253" y="1509" type="line"/>
      <point x="207" y="307" type="line" identifier="9aKZPM0HPh"/>
    </contour>
  </outline>
</glyph>
<glyph name="N.narrow" format="2">
  <advance width="261"/>
  <outline>
    <contour>
      <point x="34" y="0" type="line" smooth="yes"/>
      <point x="85" y="0" type="line"/>
      <point x="85" y="1458" type="line"/>
      <point x="119" y="1551" type="line"/>
      <point x="177" y="1551" type="line"/>
      <point x="177" y="0" type="line" smooth="yes"/>
      <point x="227" y="0" type="line" smooth="yes"/>
      <point x="227" y="1600" type="line" smooth="yes"/>
      <point x="117" y="1600" type="line" smooth="yes"/>
      <point x="86" y="1527" type="line"/>
      <point x="84" y="1527" type="line"/>
      <point x="84" y="1600" type="line"/>
      <point x="34" y="1600" type="line"/>
    </contour>
  </outline>
</glyph>
<glyph name="N.narrow.shadow" format="2">
  <advance width="191"/>
  <outline>
    <contour>
      <point x="177" y="1551" type="line"/>
      <point x="119" y="1551" type="line"/>
      <point x="85" y="1458" type="line"/>
      <point x="101" y="1501" type="line"/>
      <point x="127" y="1501" type="line"/>
      <point x="127" y="-50" type="line"/>
      <point x="177" y="-50" type="line"/>
      <point x="227" y="0" type="line" smooth="yes"/>
      <point x="177" y="0" type="line" smooth="yes"/>
    </contour>
    <contour>
      <point x="86" y="1527" type="line"/>
      <point x="117" y="1600" type="line" smooth="yes"/>
      <point x="84" y="1567" type="line"/>
      <point x="84" y="1527" type="line"/>
    </contour>
    <contour>
      <point x="34" y="0" type="line" smooth="yes"/>
      <point x="34" y="1600" type="line"/>
      <point x="-16" y="1550" type="line"/>
      <point x="-16" y="-50" type="line"/>
      <point x="35" y="-50" type="line"/>
      <point x="85" y="0" type="line"/>
    </contour>
  </outline>
</glyph>
<glyph name="N.shadow" format="2">
  <advance width="236"/>
  <outline>
    <contour>
      <point x="94" y="1559" type="line" identifier="MEnBDHq6zU"/>
      <point x="80" y="1559" type="line" identifier="wfBbYd10Pm"/>
      <point x="80" y="780" type="line"/>
      <point x="121" y="-50" type="line"/>
      <point x="222" y="-50" type="line"/>
      <point x="272" y="0" type="line" identifier="uKfuudIUvA"/>
      <point x="171" y="0" type="line" identifier="3Nbopwznvn"/>
    </contour>
    <contour>
      <point x="226" y="41" type="line" identifier="VILP20cFmq"/>
      <point x="226" y="1600" type="line" identifier="MUSJPjCIXg"/>
      <point x="176" y="1550" type="line"/>
      <point x="176" y="712" type="line"/>
      <point x="131" y="1600" type="line" identifier="LL64NQ6WBE"/>
      <point x="210" y="41" type="line" identifier="z5b04GDwRN"/>
    </contour>
    <contour>
      <point x="34" y="0" type="line" identifier="CkwYPPvJLv"/>
      <point x="34" y="1600" type="line" identifier="dzUaaP1sjt"/>
      <point x="-16" y="1550" type="line"/>
      <point x="-16" y="-50" type="line"/>
      <point x="30" y="-50" type="line"/>
      <point x="80" y="0" type="line" identifier="oHTJsN7drZ"/>
    </contour>
  </outline>
</glyph>
<glyph name="N.wide.shadow" format="2">
  <advance width="240"/>
  <outline>
    <contour>
      <point x="100" y="1600" type="line" identifier="LL64NQ6WBE"/>
      <point x="176" y="544" type="line"/>
      <point x="176" y="544" type="line"/>
    </contour>
    <contour>
      <point x="98" y="1545" type="line" identifier="MEnBDHq6zU"/>
      <point x="85" y="1545" type="line" identifier="wfBbYd10Pm"/>
      <point x="85" y="985" type="line"/>
      <point x="160" y="-50" type="line"/>
      <point x="226" y="-50" type="line"/>
      <point x="276" y="0" type="line" identifier="uKfuudIUvA"/>
      <point x="210" y="0" type="line" identifier="3Nbopwznvn"/>
    </contour>
    <contour>
      <point x="211" y="58" type="line" identifier="z5b04GDwRN"/>
      <point x="226" y="58" type="line" identifier="VILP20cFmq"/>
      <point x="226" y="1600" type="line" identifier="MUSJPjCIXg"/>
      <point x="176" y="1550" type="line"/>
      <point x="176" y="544" type="line"/>
    </contour>
    <contour>
      <point x="34" y="0" type="line" identifier="CkwYPPvJLv"/>
      <point x="34" y="1600" type="line" identifier="dzUaaP1sjt"/>
      <point x="-16" y="1550" type="line"/>
      <point x="-16" y="-50" type="line"/>
      <point x="35" y="-50" type="line"/>
      <point x="85" y="0" type="line" identifier="oHTJsN7drZ"/>
    </contour>
  </outline>
</glyph>
<glyph name="O.shadow" format="2">
  <advance width="183"/>
  <outline>
    <contour>
      <point x="174" y="187" type="line" identifier="SnrsQD5TLy"/>
      <point x="174" y="1562" type="line" identifier="g70r2r6DwY"/>
      <point x="112" y="1562" type="line" identifier="qXlVxK5ShE"/>
      <point x="101" y="1512" type="line"/>
      <point x="124" y="1512" type="line"/>
      <point x="124" y="137" type="line"/>
      <point x="103" y="39" type="line"/>
      <point x="142" y="39" type="line" identifier="jjd5iRDXWT"/>
    </contour>
    <contour>
      <point x="101" y="1512" type="line"/>
      <point x="79" y="1407" type="line" identifier="vdfGLkskOQ"/>
      <point x="101" y="1512" type="line"/>
    </contour>
    <contour>
      <point x="-22" y="1359" type="line"/>
      <point x="-22" y="-50" type="line"/>
      <point x="134" y="-50" type="line"/>
      <point x="184" y="0" type="line" identifier="dfgNHTgBfR"/>
      <point x="28" y="0" type="line" identifier="U6WibAQAUl"/>
      <point x="28" y="1409" type="line" identifier="kbL68Qh2zr"/>
      <point x="70" y="1600" type="line" identifier="a4Ql951bxG"/>
      <point x="20" y="1550" type="line"/>
    </contour>
  </outline>
</glyph>
<glyph name="P.wide.shadow" format="2">
  <advance width="180"/>
  <outline>
    <contour>
      <point x="224" y="727" type="line" identifier="Tt6D8zYZmU"/>
      <point x="85" y="727" type="line" identifier="hIFVovVRwe"/>
      <point x="85" y="677" type="line"/>
      <point x="174" y="677" type="line"/>
    </contour>
    <contour>
      <point x="124" y="769" type="line"/>
      <point x="174" y="769" type="line" identifier="1WCnzth1GX"/>
      <point x="174" y="1559" type="line" identifier="2c4LCF1E1R"/>
      <point x="85" y="1559" type="line" identifier="IZIZQr2gYJ"/>
      <point x="85" y="1509" type="line"/>
      <point x="124" y="1509" type="line"/>
    </contour>
    <contour>
      <point x="34" y="0" type="line" identifier="EG08jqU5fb"/>
      <point x="34" y="1600" type="line" identifier="eETO5GBD5v"/>
      <point x="-16" y="1550" type="line"/>
      <point x="-16" y="-50" type="line"/>
      <point x="35" y="-50" type="line"/>
      <point x="85" y="0" type="line" identifier="osRzIFK2Cu"/>
    </contour>
  </outline>
</glyph>
<glyph name="Q.shadow" format="2">
  <advance width="189"/>
  <outline>
    <contour>
      <point x="225" y="0" type="line" identifier="dfgNHTgBfR"/>
      <point x="146" y="0" type="line"/>
      <point x="146" y="2" type="line"/>
      <point x="110" y="2" type="line"/>
      <point x="110" y="0" type="line"/>
      <point x="146" y="0" type="line"/>
      <point x="146" y="-50" type="line"/>
      <point x="175" y="-50" type="line"/>
    </contour>
    <contour>
      <point x="174" y="41" type="line" identifier="jjd5iRDXWT"/>
      <point x="174" y="1559" type="line" identifier="g70r2r6DwY"/>
      <point x="112" y="1559" type="line" identifier="qXlVxK5ShE"/>
      <point x="106" y="1509" type="line"/>
      <point x="124" y="1509" type="line"/>
      <point x="124" y="41" type="line"/>
    </contour>
    <contour>
      <point x="106" y="1509" type="line"/>
      <point x="79" y="1278" type="line" identifier="vdfGLkskOQ"/>
      <point x="106" y="1509" type="line"/>
    </contour>
    <contour>
      <point x="110" y="-156" type="line"/>
      <point x="110" y="0" type="line"/>
      <point x="28" y="0" type="line" identifier="U6WibAQAUl"/>
      <point x="28" y="1277" type="line" identifier="kbL68Qh2zr"/>
      <point x="70" y="1600" type="line" identifier="a4Ql951bxG"/>
      <point x="20" y="1550" type="line"/>
      <point x="-22" y="1227" type="line"/>
      <point x="-22" y="-50" type="line"/>
      <point x="60" y="-50" type="line"/>
      <point x="60" y="-206" type="line"/>
      <point x="96" y="-206" type="line"/>
      <point x="146" y="-156" type="line"/>
    </contour>
  </outline>
</glyph>
<glyph name="R.alt.shadow" format="2">
  <advance width="198"/>
  <outline>
    <contour>
      <point x="240" y="0" type="line"/>
      <point x="191" y="748" type="line"/>
      <point x="229" y="786" type="line"/>
      <point x="189" y="781" type="line"/>
      <point x="191" y="748" type="line"/>
      <point x="191" y="748" type="line"/>
    </contour>
    <contour>
      <point x="129" y="812" type="line"/>
      <point x="179" y="812" type="line"/>
      <point x="179" y="1559" type="line"/>
      <point x="88" y="1559" type="line"/>
      <point x="88" y="1509" type="line"/>
      <point x="129" y="1509" type="line"/>
    </contour>
    <contour>
      <point x="240" y="0" type="line"/>
      <point x="194" y="0" type="line"/>
      <point x="146" y="771" type="line"/>
      <point x="88" y="771" type="line"/>
      <point x="88" y="721" type="line"/>
      <point x="96" y="721" type="line"/>
      <point x="144" y="-50" type="line"/>
      <point x="190" y="-50" type="line"/>
    </contour>
    <contour>
      <point x="-12" y="-50" type="line"/>
      <point x="38" y="-50" type="line"/>
      <point x="88" y="0" type="line"/>
      <point x="38" y="0" type="line"/>
      <point x="38" y="1600" type="line"/>
      <point x="-12" y="1550" type="line"/>
    </contour>
  </outline>
</glyph>
<glyph name="R.shadow" format="2">
  <advance width="198"/>
  <outline>
    <contour>
      <point x="125" y="766" type="line"/>
      <point x="144" y="766" type="line"/>
      <point x="175" y="803" type="line"/>
      <point x="175" y="1559" type="line"/>
      <point x="85" y="1559" type="line"/>
      <point x="85" y="1509" type="line"/>
      <point x="125" y="1509" type="line"/>
    </contour>
    <contour>
      <point x="240" y="0" type="line"/>
      <point x="191" y="0" type="line"/>
      <point x="145" y="723" type="line"/>
      <point x="85" y="723" type="line"/>
      <point x="85" y="673" type="line"/>
      <point x="95" y="673" type="line"/>
      <point x="141" y="-50" type="line"/>
      <point x="190" y="-50" type="line"/>
    </contour>
    <contour>
      <point x="-16" y="-50" type="line"/>
      <point x="35" y="-50" type="line"/>
      <point x="85" y="0" type="line"/>
      <point x="34" y="0" type="line"/>
      <point x="34" y="1600" type="line"/>
      <point x="-16" y="1550" type="line"/>
    </contour>
  </outline>
</glyph>
<glyph name="S.alt.shadow" format="2">
  <advance width="163"/>
  <outline>
    <contour>
      <point x="154" y="1559" type="line" identifier="3ZUkG35meB"/>
      <point x="106" y="1559" type="line"/>
      <point x="99" y="1509" type="line"/>
      <point x="104" y="1509" type="line"/>
      <point x="104" y="1198" type="line"/>
      <point x="155" y="1198" type="line"/>
      <point x="205" y="1248" type="line" identifier="9KDcrfQ5Ui"/>
      <point x="154" y="1248" type="line" identifier="DTOJhFIl15"/>
    </contour>
    <contour>
      <point x="99" y="1509" type="line"/>
      <point x="67" y="1274" type="line"/>
      <point x="99" y="1509" type="line"/>
    </contour>
    <contour>
      <point x="-27" y="1227" type="line"/>
      <point x="-27" y="732" type="line"/>
      <point x="104" y="732" type="line"/>
      <point x="104" y="41" type="line"/>
      <point x="154" y="41" type="line" identifier="9kdl9SYsn8"/>
      <point x="154" y="782" type="line" identifier="yiV6OCBLHg"/>
      <point x="23" y="782" type="line" identifier="3sQ8t8BZ6b"/>
      <point x="23" y="1277" type="line"/>
      <point x="70" y="1600" type="line"/>
      <point x="20" y="1550" type="line"/>
    </contour>
    <contour>
      <point x="25" y="0" type="line" identifier="09VlJ0BjUX"/>
      <point x="25" y="269" type="line" identifier="ho4DrS0rdW"/>
      <point x="-25" y="219" type="line"/>
      <point x="-25" y="-50" type="line"/>
      <point x="155" y="-50" type="line"/>
      <point x="205" y="0" type="line" identifier="EagWihqFM8"/>
    </contour>
  </outline>
</glyph>
<glyph name="S.shadow" format="2">
  <advance width="168"/>
  <outline>
    <contour>
      <point x="162" y="1559" type="line" identifier="3ZUkG35meB"/>
      <point x="114" y="1559" type="line"/>
      <point x="107" y="1509" type="line"/>
      <point x="112" y="1509" type="line"/>
      <point x="112" y="1096" type="line"/>
      <point x="162" y="1096" type="line"/>
      <point x="212" y="1146" type="line" identifier="9KDcrfQ5Ui"/>
      <point x="162" y="1146" type="line" identifier="DTOJhFIl15"/>
    </contour>
    <contour>
      <point x="107" y="1509" type="line"/>
      <point x="76" y="1274" type="line"/>
      <point x="107" y="1509" type="line"/>
    </contour>
    <contour>
      <point x="-24" y="1227" type="line"/>
      <point x="-24" y="728" type="line"/>
      <point x="109" y="728" type="line"/>
      <point x="109" y="41" type="line"/>
      <point x="159" y="41" type="line" identifier="9kdl9SYsn8"/>
      <point x="159" y="778" type="line" identifier="yiV6OCBLHg"/>
      <point x="26" y="778" type="line" identifier="3sQ8t8BZ6b"/>
      <point x="26" y="1277" type="line"/>
      <point x="73" y="1600" type="line"/>
      <point x="23" y="1550" type="line"/>
    </contour>
    <contour>
      <point x="27" y="0" type="line" identifier="09VlJ0BjUX"/>
      <point x="27" y="368" type="line" identifier="ho4DrS0rdW"/>
      <point x="-23" y="318" type="line"/>
      <point x="-23" y="-50" type="line"/>
      <point x="159" y="-50" type="line"/>
      <point x="209" y="0" type="line" identifier="EagWihqFM8"/>
    </contour>
  </outline>
</glyph>
<glyph name="S.wide.shadow" format="2">
  <advance width="161"/>
  <outline>
    <contour>
      <point x="102" y="1509" type="line"/>
      <point x="70" y="1274" type="line"/>
      <point x="102" y="1509" type="line"/>
      <point x="155" y="1509" type="line"/>
      <point x="205" y="1559" type="line" identifier="3ZUkG35meB"/>
      <point x="109" y="1559" type="line"/>
      <point x="102" y="1509" type="line"/>
    </contour>
    <contour>
      <point x="27" y="0" type="line" identifier="09VlJ0BjUX"/>
      <point x="27" y="41" type="line" identifier="yZDWuX8LLe"/>
      <point x="-23" y="-9" type="line"/>
      <point x="-23" y="-50" type="line"/>
      <point x="155" y="-50" type="line"/>
      <point x="205" y="0" type="line" identifier="EagWihqFM8"/>
    </contour>
    <contour>
      <point x="-24" y="1227" type="line"/>
      <point x="-24" y="732" type="line"/>
      <point x="104" y="732" type="line"/>
      <point x="104" y="41" type="line"/>
      <point x="154" y="41" type="line" identifier="9kdl9SYsn8"/>
      <point x="154" y="782" type="line" identifier="yiV6OCBLHg"/>
      <point x="26" y="782" type="line" identifier="3sQ8t8BZ6b"/>
      <point x="26" y="1277" type="line"/>
      <point x="73" y="1600" type="line"/>
      <point x="23" y="1550" type="line"/>
    </contour>
  </outline>
</glyph>
<glyph name="T.shadow" format="2">
  <advance width="167"/>
  <outline>
    <contour>
      <point x="211" y="1559" type="line"/>
      <point x="144" y="1559" type="line" identifier="zTICSjBOe7"/>
      <point x="144" y="1509" type="line"/>
      <point x="161" y="1509" type="line"/>
    </contour>
    <contour>
      <point x="93" y="0" type="line"/>
      <point x="93" y="1559" type="line" identifier="1xm0mHc9eh"/>
      <point x="26" y="1559" type="line"/>
      <point x="26" y="1600" type="line" identifier="8oS81nStJX"/>
      <point x="-24" y="1550" type="line"/>
      <point x="-24" y="1509" type="line"/>
      <point x="43" y="1509" type="line"/>
      <point x="43" y="-50" type="line"/>
      <point x="94" y="-50" type="line"/>
      <point x="144" y="0" type="line"/>
    </contour>
  </outline>
</glyph>
<glyph name="U.shadow" format="2">
  <advance width="187"/>
  <outline>
    <contour>
      <point x="171" y="1600" type="line" smooth="yes"/>
      <point x="121" y="1550" type="line"/>
      <point x="121" y="48" type="line"/>
      <point x="79" y="325" type="line" smooth="yes"/>
      <point x="122" y="41" type="line" smooth="yes"/>
      <point x="171" y="41" type="line"/>
    </contour>
    <contour>
      <point x="28" y="323" type="line" smooth="yes"/>
      <point x="28" y="1600" type="line" smooth="yes"/>
      <point x="-22" y="1550" type="line"/>
      <point x="-22" y="273" type="line"/>
      <point x="34" y="-50" type="line"/>
      <point x="171" y="-50" type="line"/>
      <point x="221" y="0" type="line" smooth="yes"/>
      <point x="84" y="0" type="line" smooth="yes"/>
    </contour>
  </outline>
</glyph>
<glyph name="W.shadow" format="2">
  <advance width="327"/>
  <outline>
    <contour>
      <point x="268" y="192" type="line"/>
      <point x="236" y="41" type="line"/>
      <point x="275" y="41" type="line" smooth="yes" identifier="oee4nqI8Wl"/>
      <point x="318" y="242" type="line" smooth="yes" identifier="WWvGwSpq0g"/>
      <point x="318" y="1600" type="line" identifier="JfSFAkWGZC"/>
      <point x="268" y="1550" type="line"/>
    </contour>
    <contour>
      <point x="127" y="199" type="line"/>
      <point x="125" y="180" type="line"/>
      <point x="110" y="41" type="line"/>
      <point x="155" y="41" type="line" identifier="GlWB6PG54Z"/>
      <point x="175" y="230" type="line"/>
      <point x="177" y="249" type="line"/>
      <point x="177" y="1575" type="line"/>
      <point x="127" y="1525" type="line"/>
    </contour>
    <contour>
      <point x="-16" y="-50" type="line"/>
      <point x="128" y="-50" type="line"/>
      <point x="145" y="-33" type="line"/>
      <point x="145" y="-50" type="line"/>
      <point x="266" y="-50" type="line"/>
      <point x="316" y="0" type="line" smooth="yes" identifier="R4lklfJsHA"/>
      <point x="195" y="0" type="line" smooth="yes" identifier="Pkl7cZ37MU"/>
      <point x="195" y="175" type="line"/>
      <point x="193" y="175" type="line"/>
      <point x="178" y="0" type="line" smooth="yes" identifier="rCeQLyjlsN"/>
      <point x="34" y="0" type="line" smooth="yes" identifier="ZqTZqAY3uY"/>
      <point x="34" y="1600" type="line" smooth="yes" identifier="5LJg4ajoG6"/>
      <point x="-16" y="1550" type="line"/>
    </contour>
  </outline>
</glyph>
<glyph name="X.shadow" format="2">
  <advance width="193"/>
  <outline>
    <contour>
      <point x="130" y="820" type="line"/>
      <point x="146" y="820" type="line"/>
      <point x="180" y="863" type="line"/>
      <point x="180" y="1600" type="line"/>
      <point x="130" y="1550" type="line"/>
    </contour>
    <contour>
      <point x="146" y="780" type="line"/>
      <point x="117" y="780" type="line"/>
      <point x="79" y="734" type="line"/>
      <point x="79" y="730" type="line"/>
      <point x="96" y="730" type="line"/>
      <point x="134" y="684" type="line"/>
      <point x="134" y="-50" type="line"/>
      <point x="185" y="-50" type="line"/>
      <point x="235" y="0" type="line"/>
      <point x="184" y="0" type="line"/>
      <point x="184" y="734" type="line"/>
    </contour>
    <contour>
      <point x="-18" y="804" type="line"/>
      <point x="22" y="751" type="line"/>
      <point x="22" y="749" type="line"/>
      <point x="-22" y="693" type="line"/>
      <point x="-22" y="-50" type="line"/>
      <point x="29" y="-50" type="line"/>
      <point x="79" y="0" type="line"/>
      <point x="28" y="0" type="line"/>
      <point x="28" y="743" type="line"/>
      <point x="72" y="799" type="line"/>
      <point x="72" y="801" type="line"/>
      <point x="32" y="854" type="line"/>
      <point x="32" y="1600" type="line"/>
      <point x="-18" y="1550" type="line"/>
    </contour>
  </outline>
</glyph>
<glyph name="Y.shadow" format="2">
  <advance width="174"/>
  <outline>
    <contour>
      <point x="147" y="714" type="line"/>
      <point x="168" y="730" type="line"/>
      <point x="218" y="780" type="line" identifier="YbKEFhFR3q"/>
      <point x="147" y="727" type="line" identifier="rvzWMWl6O1"/>
    </contour>
    <contour>
      <point x="123" y="772" type="line" identifier="9ncbEH2hEb"/>
      <point x="167" y="814" type="line" identifier="Jw55i2s2Mm"/>
      <point x="167" y="1600" type="line" identifier="spI4xe8t4f"/>
      <point x="117" y="1550" type="line"/>
      <point x="117" y="776" type="line"/>
      <point x="76" y="814" type="line" identifier="oy8ifCCtGL"/>
      <point x="121" y="772" type="line" identifier="u7HFbTQwMo"/>
    </contour>
    <contour>
      <point x="97" y="0" type="line" identifier="XKjckKJ7m9"/>
      <point x="97" y="727" type="line" identifier="3Kveia3O9h"/>
      <point x="26" y="780" type="line" identifier="k3vH9oxqcN"/>
      <point x="26" y="1600" type="line" identifier="fJXhpKV79E"/>
      <point x="-24" y="1550" type="line"/>
      <point x="-24" y="730" type="line"/>
      <point x="47" y="677" type="line"/>
      <point x="47" y="-50" type="line"/>
      <point x="97" y="-50" type="line"/>
      <point x="147" y="0" type="line" identifier="WihjL321cU"/>
    </contour>
  </outline>
</glyph>
<glyph name="Z.shadow" format="2">
  <advance width="176"/>
  <outline>
    <contour>
      <point x="26" y="0" type="line"/>
      <point x="26" y="264" type="line" identifier="teVKnpBcVb"/>
      <point x="167" y="1533" type="line"/>
      <point x="167" y="1559" type="line"/>
      <point x="74" y="1559" type="line"/>
      <point x="74" y="1509" type="line"/>
      <point x="117" y="1509" type="line"/>
      <point x="117" y="1483" type="line"/>
      <point x="-24" y="214" type="line"/>
      <point x="-24" y="-50" type="line"/>
      <point x="170" y="-50" type="line"/>
      <point x="220" y="0" type="line" identifier="pzdvPTirLJ"/>
    </contour>
    <contour>
      <point x="-21" y="1276" type="line"/>
      <point x="24" y="1276" type="line"/>
      <point x="74" y="1326" type="line"/>
      <point x="29" y="1326" type="line" identifier="LQ9fBsTy9K"/>
      <point x="29" y="1600" type="line" identifier="svlFvrau4c"/>
      <point x="-21" y="1550" type="line"/>
    </contour>
    <contour>
      <point x="119" y="41" type="line"/>
      <point x="169" y="41" type="line"/>
      <point x="169" y="281" type="line"/>
      <point x="119" y="231" type="line"/>
    </contour>
  </outline>
</glyph>
<glyph name="Z.wide" format="2">
  <advance width="246"/>
  <outline>
    <contour>
      <point x="26" y="0" type="line"/>
      <point x="220" y="0" type="line" identifier="pzdvPTirLJ"/>
      <point x="220" y="41" type="line"/>
      <point x="76" y="41" type="line"/>
      <point x="76" y="261" type="line"/>
      <point x="217" y="1457" type="line" identifier="yyb1NCCI5w"/>
      <point x="217" y="1600" type="line" identifier="5FogYRSgkk"/>
      <point x="29" y="1600" type="line" identifier="svlFvrau4c"/>
      <point x="29" y="1559" type="line"/>
      <point x="166" y="1559" type="line"/>
      <point x="166" y="1455" type="line"/>
      <point x="26" y="264" type="line" identifier="teVKnpBcVb"/>
    </contour>
  </outline>
</glyph>
<glyph name="Z.wide.shadow" format="2">
  <advance width="176"/>
  <outline>
    <contour>
      <point x="26" y="0" type="line"/>
      <point x="26" y="264" type="line" identifier="teVKnpBcVb"/>
      <point x="166" y="1455" type="line"/>
      <point x="166" y="1559" type="line"/>
      <point x="29" y="1559" type="line"/>
      <point x="29" y="1600" type="line" identifier="svlFvrau4c"/>
      <point x="-21" y="1550" type="line"/>
      <point x="-21" y="1509" type="line"/>
      <point x="116" y="1509" type="line"/>
      <point x="116" y="1405" type="line"/>
      <point x="-24" y="214" type="line"/>
      <point x="-24" y="-50" type="line"/>
      <point x="170" y="-50" type="line"/>
      <point x="220" y="0" type="line" identifier="pzdvPTirLJ"/>
    </contour>
  </outline>
</glyph>
<glyph name="comma.shadow" format="2">
  <advance width="97"/>
  <outline>
    <contour>
      <point x="125" y="-147" type="line"/>
      <point x="116" y="-147" type="line"/>
      <point x="116" y="0" type="line"/>
      <point x="88" y="0" type="line"/>
      <point x="88" y="29" type="line"/>
      <point x="94" y="41" type="line"/>
      <point x="44" y="-9" type="line"/>
      <point x="38" y="-21" type="line"/>
      <point x="38" y="-50" type="line"/>
      <point x="66" y="-50" type="line"/>
      <point x="66" y="-197" type="line"/>
      <point x="75" y="-197" type="line"/>
    </contour>
  </outline>
</glyph>
<glyph name="eight.shadow" format="2">
  <advance width="193"/>
  <outline>
    <contour>
      <point x="147" y="780" type="line"/>
      <point x="116" y="780" type="line"/>
      <point x="79" y="732" type="line"/>
      <point x="79" y="730" type="line"/>
      <point x="97" y="730" type="line"/>
      <point x="134" y="682" type="line"/>
      <point x="134" y="41" type="line"/>
      <point x="184" y="41" type="line"/>
      <point x="184" y="732" type="line"/>
    </contour>
    <contour>
      <point x="131" y="820" type="line"/>
      <point x="147" y="820" type="line"/>
      <point x="181" y="865" type="line"/>
      <point x="181" y="1559" type="line"/>
      <point x="82" y="1559" type="line"/>
      <point x="82" y="1509" type="line"/>
      <point x="131" y="1509" type="line"/>
    </contour>
    <contour>
      <point x="-19" y="804" type="line"/>
      <point x="20" y="751" type="line"/>
      <point x="20" y="749" type="line"/>
      <point x="-22" y="693" type="line"/>
      <point x="-22" y="-50" type="line"/>
      <point x="185" y="-50" type="line"/>
      <point x="235" y="0" type="line"/>
      <point x="28" y="0" type="line"/>
      <point x="28" y="743" type="line"/>
      <point x="70" y="799" type="line"/>
      <point x="70" y="801" type="line"/>
      <point x="31" y="854" type="line"/>
      <point x="31" y="1600" type="line"/>
      <point x="-19" y="1550" type="line"/>
    </contour>
  </outline>
</glyph>
<glyph name="five.shadow" format="2">
  <advance width="169"/>
  <outline>
    <contour>
      <point x="76" y="1509" type="line"/>
      <point x="163" y="1509" type="line"/>
      <point x="213" y="1559" type="line" identifier="3ZUkG35meB"/>
      <point x="76" y="1559" type="line" identifier="BcuLfvaQKC"/>
    </contour>
    <contour>
      <point x="-24" y="735" type="line"/>
      <point x="112" y="735" type="line"/>
      <point x="112" y="41" type="line"/>
      <point x="162" y="41" type="line" identifier="9kdl9SYsn8"/>
      <point x="162" y="785" type="line" identifier="yiV6OCBLHg"/>
      <point x="26" y="785" type="line" identifier="3sQ8t8BZ6b"/>
      <point x="26" y="1600" type="line" identifier="F4sQEYelA8"/>
      <point x="-24" y="1550" type="line"/>
    </contour>
    <contour>
      <point x="28" y="0" type="line" identifier="09VlJ0BjUX"/>
      <point x="28" y="277" type="line" identifier="ho4DrS0rdW"/>
      <point x="-22" y="227" type="line"/>
      <point x="-22" y="-50" type="line"/>
      <point x="163" y="-50" type="line"/>
      <point x="213" y="0" type="line" identifier="EagWihqFM8"/>
    </contour>
  </outline>
</glyph>
<glyph name="five.wide.shadow" format="2">
  <advance width="166"/>
  <outline>
    <contour>
      <point x="76" y="1509" type="line"/>
      <point x="160" y="1509" type="line"/>
      <point x="210" y="1559" type="line" identifier="3ZUkG35meB"/>
      <point x="76" y="1559" type="line" identifier="BcuLfvaQKC"/>
    </contour>
    <contour>
      <point x="28" y="0" type="line" identifier="09VlJ0BjUX"/>
      <point x="28" y="41" type="line" identifier="yZDWuX8LLe"/>
      <point x="-22" y="-9" type="line"/>
      <point x="-22" y="-50" type="line"/>
      <point x="160" y="-50" type="line"/>
      <point x="210" y="0" type="line" identifier="EagWihqFM8"/>
    </contour>
    <contour>
      <point x="-24" y="729" type="line"/>
      <point x="110" y="729" type="line"/>
      <point x="110" y="41" type="line"/>
      <point x="160" y="41" type="line" identifier="9kdl9SYsn8"/>
      <point x="160" y="779" type="line" identifier="yiV6OCBLHg"/>
      <point x="26" y="779" type="line" identifier="3sQ8t8BZ6b"/>
      <point x="26" y="1600" type="line" identifier="F4sQEYelA8"/>
      <point x="-24" y="1550" type="line"/>
    </contour>
  </outline>
</glyph>
<glyph name="four.shadow" format="2">
  <advance width="194"/>
  <outline>
    <contour>
      <point x="117" y="1680" type="line"/>
      <point x="110" y="1557" type="line"/>
      <point x="110" y="1557" type="line"/>
    </contour>
    <contour>
      <point x="76" y="908" type="line"/>
      <point x="103" y="1416" type="line"/>
      <point x="103" y="831" type="line"/>
      <point x="153" y="831" type="line"/>
      <point x="153" y="1600" type="line"/>
      <point x="110" y="1557" type="line"/>
    </contour>
    <contour>
      <point x="204" y="756" type="line"/>
      <point x="238" y="790" type="line"/>
      <point x="204" y="790" type="line"/>
    </contour>
    <contour>
      <point x="153" y="0" type="line"/>
      <point x="153" y="790" type="line"/>
      <point x="26" y="790" type="line"/>
      <point x="26" y="907" type="line"/>
      <point x="69" y="1680" type="line"/>
      <point x="19" y="1630" type="line"/>
      <point x="-24" y="857" type="line"/>
      <point x="-24" y="740" type="line"/>
      <point x="103" y="740" type="line"/>
      <point x="103" y="-50" type="line"/>
      <point x="154" y="-50" type="line"/>
      <point x="204" y="0" type="line"/>
    </contour>
  </outline>
</glyph>
<glyph name="one.narrow.shadow" format="2">
  <advance width="106"/>
  <outline>
    <contour>
      <point x="142" y="0" type="line" identifier="5nmxQXofSG"/>
      <point x="92" y="0" type="line"/>
      <point x="92" y="1559" type="line"/>
      <point x="26" y="1559" type="line"/>
      <point x="26" y="1600" type="line"/>
      <point x="-24" y="1550" type="line"/>
      <point x="-24" y="1509" type="line"/>
      <point x="42" y="1509" type="line"/>
      <point x="42" y="-50" type="line"/>
      <point x="92" y="-50" type="line"/>
    </contour>
  </outline>
</glyph>
<glyph name="one.shadow" format="2">
  <advance width="144"/>
  <outline>
    <contour>
      <point x="28" y="0" type="line"/>
      <point x="28" y="41" type="line"/>
      <point x="-22" y="-9" type="line"/>
      <point x="-22" y="-50" type="line"/>
      <point x="138" y="-50" type="line"/>
      <point x="188" y="0" type="line" identifier="CURJAw79Zl"/>
    </contour>
    <contour>
      <point x="-24" y="1509" type="line"/>
      <point x="33" y="1509" type="line"/>
      <point x="33" y="41" type="line"/>
      <point x="83" y="41" type="line"/>
      <point x="83" y="1559" type="line"/>
      <point x="26" y="1559" type="line"/>
      <point x="26" y="1600" type="line"/>
      <point x="-24" y="1550" type="line"/>
    </contour>
  </outline>
</glyph>
<glyph name="period.shadow" format="2">
  <advance width="30"/>
  <outline>
    <contour>
      <point x="66" y="0" type="line" identifier="1m237t4hyw"/>
      <point x="33" y="0" type="line" identifier="S4rO5KuHiL"/>
      <point x="33" y="27" type="line"/>
      <point x="38" y="39" type="line" identifier="zfocDyDTCM"/>
      <point x="-12" y="-11" type="line"/>
      <point x="-17" y="-23" type="line"/>
      <point x="-17" y="-50" type="line"/>
      <point x="16" y="-50" type="line"/>
    </contour>
  </outline>
</glyph>
<glyph name="seven.shadow" format="2">
  <advance width="175"/>
  <outline>
    <contour>
      <point x="-24" y="1261" type="line"/>
      <point x="26" y="1261" type="line"/>
      <point x="76" y="1311" type="line"/>
      <point x="26" y="1311" type="line" identifier="aaDZsh5Mah"/>
      <point x="26" y="1600" type="line" identifier="36ml4xRICt"/>
      <point x="-24" y="1550" type="line"/>
    </contour>
    <contour>
      <point x="101" y="0" type="line"/>
      <point x="168" y="1455" type="line"/>
      <point x="168" y="1559" type="line"/>
      <point x="76" y="1559" type="line"/>
      <point x="76" y="1509" type="line"/>
      <point x="118" y="1509" type="line"/>
      <point x="118" y="1405" type="line"/>
      <point x="51" y="-50" type="line"/>
      <point x="101" y="-50" type="line"/>
      <point x="151" y="0" type="line" identifier="PiPrv7Kcoy"/>
    </contour>
  </outline>
</glyph>
<glyph name="six.shadow" format="2">
  <advance width="178"/>
  <outline>
    <contour>
      <point x="171" y="1559" type="line"/>
      <point x="115" y="1559" type="line"/>
      <point x="79" y="1400" type="line"/>
      <point x="104" y="1509" type="line"/>
      <point x="121" y="1509" type="line"/>
      <point x="121" y="1271" type="line"/>
      <point x="171" y="1271" type="line"/>
      <point x="221" y="1321" type="line" identifier="Wuidbv6mUe"/>
      <point x="171" y="1321" type="line"/>
    </contour>
    <contour>
      <point x="171" y="775" type="line"/>
      <point x="79" y="775" type="line"/>
      <point x="79" y="725" type="line"/>
      <point x="121" y="725" type="line"/>
      <point x="121" y="41" type="line"/>
      <point x="171" y="41" type="line"/>
    </contour>
    <contour>
      <point x="28" y="0" type="line" identifier="uiw6aBUf4P"/>
      <point x="28" y="1401" type="line" identifier="KnMArb0tv8"/>
      <point x="70" y="1600" type="line" identifier="xR3pEHbMJx"/>
      <point x="20" y="1550" type="line"/>
      <point x="-22" y="1351" type="line"/>
      <point x="-22" y="-50" type="line"/>
      <point x="172" y="-50" type="line"/>
      <point x="222" y="0" type="line" identifier="jtYkxiUX6G"/>
    </contour>
  </outline>
</glyph>
<glyph name="six.wide" format="2">
  <advance width="230"/>
  <outline>
    <contour>
      <point x="18" y="0" type="line" identifier="uiw6aBUf4P"/>
      <point x="211" y="0" type="line" identifier="jtYkxiUX6G"/>
      <point x="211" y="812" type="line" identifier="2G5L37c87I"/>
      <point x="68" y="812" type="line"/>
      <point x="68" y="1405" type="line"/>
      <point x="103" y="1559" type="line"/>
      <point x="211" y="1559" type="line"/>
      <point x="211" y="1600" type="line" identifier="oGvEEuxnYv"/>
      <point x="56" y="1600" type="line" identifier="xR3pEHbMJx"/>
      <point x="18" y="1406" type="line" identifier="KnMArb0tv8"/>
    </contour>
    <contour>
      <point x="161" y="778" type="line"/>
      <point x="161" y="41" type="line"/>
      <point x="68" y="41" type="line"/>
      <point x="68" y="778" type="line"/>
    </contour>
  </outline>
</glyph>
<glyph name="six.wide.shadow" format="2">
  <advance width="161"/>
  <outline>
    <contour>
      <point x="68" y="1405" type="line"/>
      <point x="92" y="1509" type="line"/>
      <point x="161" y="1509" type="line"/>
      <point x="211" y="1559" type="line"/>
      <point x="103" y="1559" type="line"/>
    </contour>
    <contour>
      <point x="161" y="778" type="line"/>
      <point x="68" y="778" type="line"/>
      <point x="68" y="728" type="line"/>
      <point x="111" y="728" type="line"/>
      <point x="111" y="41" type="line"/>
      <point x="161" y="41" type="line"/>
    </contour>
    <contour>
      <point x="18" y="0" type="line" identifier="uiw6aBUf4P"/>
      <point x="18" y="1406" type="line" identifier="KnMArb0tv8"/>
      <point x="56" y="1600" type="line" identifier="xR3pEHbMJx"/>
      <point x="6" y="1550" type="line"/>
      <point x="-32" y="1356" type="line"/>
      <point x="-32" y="-50" type="line"/>
      <point x="161" y="-50" type="line"/>
      <point x="211" y="0" type="line" identifier="jtYkxiUX6G"/>
    </contour>
  </outline>
</glyph>
<glyph name="three.shadow" format="2">
  <advance width="177"/>
  <outline>
    <contour>
      <point x="-22" y="1338" type="line"/>
      <point x="28" y="1338" type="line"/>
      <point x="78" y="1388" type="line" identifier="AcE5xKDZfE"/>
      <point x="28" y="1388" type="line" identifier="5lNstGRcSF"/>
      <point x="28" y="1600" type="line" identifier="pE1XSRiy68"/>
      <point x="-22" y="1550" type="line"/>
    </contour>
    <contour>
      <point x="109" y="863" type="line"/>
      <point x="97" y="826" type="line"/>
      <point x="132" y="826" type="line" identifier="iic1IBkDqp"/>
      <point x="132" y="829" type="line"/>
      <point x="159" y="913" type="line" identifier="YUjTrmoWd9"/>
      <point x="159" y="1559" type="line" identifier="RHLvSX2Jv6"/>
      <point x="78" y="1559" type="line" identifier="7ogBYufWpl"/>
      <point x="78" y="1509" type="line"/>
      <point x="109" y="1509" type="line"/>
    </contour>
    <contour>
      <point x="-8" y="735" type="line"/>
      <point x="118" y="735" type="line"/>
      <point x="118" y="41" type="line"/>
      <point x="168" y="41" type="line" identifier="xv9CFHiFgB"/>
      <point x="168" y="785" type="line" identifier="Dm8zjmbhNr"/>
      <point x="42" y="785" type="line" identifier="8aKgEELrVU"/>
      <point x="42" y="826" type="line" identifier="lRLJEhXMlO"/>
      <point x="-8" y="776" type="line"/>
    </contour>
    <contour>
      <point x="26" y="0" type="line" identifier="O9abUc1nmN"/>
      <point x="26" y="157" type="line" identifier="tVui9PiOjA"/>
      <point x="-24" y="107" type="line"/>
      <point x="-24" y="-50" type="line"/>
      <point x="169" y="-50" type="line"/>
      <point x="219" y="0" type="line" identifier="kMJYMTfXCq"/>
    </contour>
  </outline>
</glyph>
<glyph name="three.wide" format="2">
  <advance width="236"/>
  <outline>
    <contour>
      <point x="26" y="0" type="line" identifier="O9abUc1nmN"/>
      <point x="202" y="0" type="line" identifier="kMJYMTfXCq"/>
      <point x="202" y="819" type="line" identifier="su2XmdS8e8"/>
      <point x="166" y="819" type="line" identifier="JQaOzDQqlF"/>
      <point x="166" y="821" type="line"/>
      <point x="191" y="906" type="line" identifier="S91TzLL02W"/>
      <point x="191" y="1600" type="line" identifier="xg8x2Ki40p"/>
      <point x="28" y="1600" type="line" identifier="pE1XSRiy68"/>
      <point x="28" y="1558" type="line" identifier="7ogBYufWpl"/>
      <point x="141" y="1558" type="line" identifier="RHLvSX2Jv6"/>
      <point x="141" y="906" type="line" identifier="YUjTrmoWd9"/>
      <point x="116" y="822" type="line"/>
      <point x="116" y="819" type="line" identifier="iic1IBkDqp"/>
      <point x="42" y="819" type="line" identifier="lRLJEhXMlO"/>
      <point x="42" y="793" type="line" identifier="8aKgEELrVU"/>
      <point x="152" y="793" type="line" identifier="Dm8zjmbhNr"/>
      <point x="152" y="41" type="line" identifier="xv9CFHiFgB"/>
      <point x="26" y="41" type="line" identifier="YajKQV3MHP"/>
    </contour>
  </outline>
</glyph>
<glyph name="three.wide.shadow" format="2">
  <advance width="166"/>
  <outline>
    <contour>
      <point x="26" y="0" type="line" identifier="O9abUc1nmN"/>
      <point x="26" y="41" type="line" identifier="YajKQV3MHP"/>
      <point x="-24" y="-9" type="line"/>
      <point x="-24" y="-50" type="line"/>
      <point x="152" y="-50" type="line"/>
      <point x="202" y="0" type="line" identifier="kMJYMTfXCq"/>
    </contour>
    <contour>
      <point x="-22" y="1508" type="line"/>
      <point x="91" y="1508" type="line"/>
      <point x="91" y="856" type="line"/>
      <point x="80" y="819" type="line"/>
      <point x="116" y="819" type="line" identifier="iic1IBkDqp"/>
      <point x="116" y="822" type="line"/>
      <point x="141" y="906" type="line" identifier="YUjTrmoWd9"/>
      <point x="141" y="1558" type="line" identifier="RHLvSX2Jv6"/>
      <point x="28" y="1558" type="line" identifier="7ogBYufWpl"/>
      <point x="28" y="1600" type="line" identifier="pE1XSRiy68"/>
      <point x="-22" y="1550" type="line"/>
    </contour>
    <contour>
      <point x="-8" y="743" type="line"/>
      <point x="102" y="743" type="line"/>
      <point x="102" y="41" type="line"/>
      <point x="152" y="41" type="line" identifier="xv9CFHiFgB"/>
      <point x="152" y="793" type="line" identifier="Dm8zjmbhNr"/>
      <point x="42" y="793" type="line" identifier="8aKgEELrVU"/>
      <point x="42" y="819" type="line" identifier="lRLJEhXMlO"/>
      <point x="-8" y="769" type="line"/>
    </contour>
  </outline>
</glyph>
<glyph name="two.shadow" format="2">
  <advance width="183"/>
  <outline>
    <contour>
      <point x="26" y="0" type="line"/>
      <point x="26" y="446" type="line" identifier="teVKnpBcVb"/>
      <point x="164" y="1252" type="line"/>
      <point x="164" y="1559" type="line"/>
      <point x="77" y="1559" type="line"/>
      <point x="77" y="1509" type="line"/>
      <point x="114" y="1509" type="line"/>
      <point x="114" y="1202" type="line"/>
      <point x="-24" y="396" type="line"/>
      <point x="-24" y="-50" type="line"/>
      <point x="177" y="-50" type="line"/>
      <point x="227" y="0" type="line" identifier="pzdvPTirLJ"/>
    </contour>
    <contour>
      <point x="-21" y="1360" type="line"/>
      <point x="27" y="1360" type="line"/>
      <point x="77" y="1410" type="line"/>
      <point x="29" y="1410" type="line" identifier="LQ9fBsTy9K"/>
      <point x="29" y="1600" type="line" identifier="svlFvrau4c"/>
      <point x="-21" y="1550" type="line"/>
    </contour>
  </outline>
</glyph>
<glyph name="zero.shadow" format="2">
  <advance width="194"/>
  <outline>
    <contour>
      <point x="34" y="0" type="line" identifier="4KX3b3mGg4"/>
      <point x="34" y="1600" type="line" identifier="rx6fJSLiri"/>
      <point x="-16" y="1550" type="line"/>
      <point x="-16" y="-50" type="line"/>
      <point x="180" y="-50" type="line"/>
      <point x="230" y="0" type="line" identifier="V2j8wYP0nr"/>
    </contour>
    <contour>
      <point x="130" y="41" type="line"/>
      <point x="180" y="41" type="line"/>
      <point x="180" y="1559" type="line"/>
      <point x="85" y="1559" type="line"/>
      <point x="85" y="1509" type="line"/>
      <point x="130" y="1509" type="line"/>
    </contour>
  </outline>
</glyph>
